<?xml version="1.0" standalone="no"?>
<!DOCTYPE svg PUBLIC "-//W3C//DTD SVG 20010904//EN"
 "http://www.w3.org/TR/2001/REC-SVG-20010904/DTD/svg10.dtd">
<!-- <svg version="1.0" xmlns="http://www.w3.org/2000/svg"
 width="44.000000pt" height="44.000000pt" viewBox="0 0 44.000000 44.000000"
 preserveAspectRatio="xMidYMid meet">
<metadata>
Created by potrace 1.15, written by Peter Selinger 2001-2017
</metadata>
<g transform="translate(0.000000,44.000000) scale(0.100000,-0.100000)"
fill="#ff5777" stroke="none">
<path d="M34 397 c-3 -8 -4 -47 -2 -88 l3 -74 85 0 85 0 0 85 0 85 -83 3 c-63
2 -84 0 -88 -11z"/>
<path d="M234 397 c-3 -8 -4 -47 -2 -88 l3 -74 85 0 85 0 0 85 0 85 -83 3
c-63 2 -84 0 -88 -11z"/>
<path d="M34 197 c-3 -8 -4 -47 -2 -88 l3 -74 85 0 85 0 0 85 0 85 -83 3 c-63
2 -84 0 -88 -11z"/>
<path d="M234 197 c-3 -8 -4 -47 -2 -88 l3 -74 85 0 85 0 0 85 0 85 -83 3
c-63 2 -84 0 -88 -11z"/>
</g>
</svg> -->
<svg t="1584781991688" class="icon" viewBox="0 0 1024 1024" version="1.1" xmlns="http://www.w3.org/2000/svg" p-id="969" width="200" height="200"><path d="M714.46 867.5c-90 0-163.26-73.24-163.26-163.25a164.49 164.49 0 0 1 2.49-28.51 11.53 11.53 0 0 0-0.39-5.39 11.68 11.68 0 0 0-14.62-7.59l-11.37 3.59a20 20 0 1 1-12-38.14l11.37-3.59a51.64 51.64 0 0 1 66.45 58.06A123.27 123.27 0 1 0 714.46 581H472.8v123.25c0 90-73.24 163.25-163.26 163.25s-163.25-73.24-163.25-163.25S219.52 541 309.54 541H432.8v-58H309.54c-90 0-163.25-73.23-163.25-163.25S219.52 156.5 309.54 156.5 472.8 229.74 472.8 319.75V443h229.65a115.73 115.73 0 0 0 115.6-115.6V196.5H687.14a115.73 115.73 0 0 0-115.6 115.6V368a20 20 0 0 1-40 0v-55.9c0-85.8 69.8-155.6 155.6-155.6h150.91a20 20 0 0 1 20 20v150.91c0 85.8-69.8 155.6-155.6 155.6H472.8v58h241.66c90 0 163.25 73.23 163.25 163.25S804.48 867.5 714.46 867.5zM309.54 581A123.26 123.26 0 1 0 432.8 704.25V581z m0-384.49a123.26 123.26 0 0 0 0 246.51H432.8V319.75A123.39 123.39 0 0 0 309.54 196.5z" p-id="970" fill="#FF6039"></path></svg>
