<?xml version="1.0" standalone="no"?>
<!DOCTYPE svg PUBLIC "-//W3C//DTD SVG 20010904//EN"
 "http://www.w3.org/TR/2001/REC-SVG-20010904/DTD/svg10.dtd">
<!-- <svg version="1.0" xmlns="http://www.w3.org/2000/svg"
 width="44.000000pt" height="44.000000pt" viewBox="0 0 44.000000 44.000000"
 preserveAspectRatio="xMidYMid meet">
<metadata>
Created by potrace 1.15, written by Peter Selinger 2001-2017
</metadata>
<g transform="translate(0.000000,44.000000) scale(0.100000,-0.100000)"
fill="#ff5777" stroke="none">
<path d="M110 339 c-97 -81 -118 -109 -81 -109 19 0 20 -7 23 -102 l3 -103 60
0 60 0 5 45 c7 55 15 70 40 70 25 0 33 -15 40 -70 l5 -45 60 0 60 0 3 102 c3
96 4 103 23 103 13 0 19 6 17 15 -4 20 -189 175 -208 174 -8 0 -58 -36 -110
-80z m186 -26 l65 -56 -3 -101 -3 -101 -30 0 c-28 0 -30 2 -33 45 -4 57 -25
80 -72 80 -47 0 -68 -23 -72 -80 -3 -43 -5 -45 -33 -45 l-30 0 -3 100 -3 100
63 57 c35 32 69 57 76 58 8 0 43 -25 78 -57z"/>
</g>
</svg> -->
<svg t="1584782170015" class="icon" viewBox="0 0 1024 1024" version="1.1" xmlns="http://www.w3.org/2000/svg" p-id="1707" width="200" height="200"><path d="M949.8 472.1l-64-58.5V411H883L549.1 105.5l-2.7-2.2c-20.4-14.7-47.9-14.7-68.3 0L141.7 411h-2.9v2.7l-64 58.5c-12 10.9-12.8 29.5-1.8 41.5s29.5 12.8 41.5 1.8l24.3-22.2v388c0 27.6 22.5 50.1 50.1 50.1h203c28.9 0 52.4-23.5 52.4-52.4V689.6c0-16.2 13.2-29.4 29.4-29.4H551c16.2 0 29.4 13.2 29.4 29.4V879c0 28.9 23.5 52.4 52.4 52.4h203c27.6 0 50.1-22.5 50.1-50.1v-388l24.3 22.2c5.6 5.2 12.7 7.7 19.8 7.7 8 0 15.9-3.2 21.7-9.5 10.9-12 10.1-30.6-1.9-41.6zM827.1 872.6h-188v-183c0-48.6-39.5-88.1-88.1-88.1h-77.5c-48.6 0-88.1 39.5-88.1 88.1v182.9h-188v-433l314.8-288.1L827 439.5v433.1h0.1z" fill="#FF6039" p-id="1708"></path></svg>
